<mxfile host="Electron" agent="Mozilla/5.0 (Windows NT 10.0; Win64; x64) AppleWebKit/537.36 (KHTML, like Gecko) draw.io/28.0.4 Chrome/138.0.7204.97 Electron/37.2.1 Safari/537.36" version="28.0.4">
  <diagram name="API Gateway и Service Discovery" id="api-gateway-service-discovery-architecture">
    <mxGraphModel dx="2066" dy="2028" grid="1" gridSize="10" guides="1" tooltips="1" connect="1" arrows="1" fold="1" page="1" pageScale="1" pageWidth="1169" pageHeight="827" math="0" shadow="0">
      <root>
        <mxCell id="0" />
        <mxCell id="1" parent="0" />
        <mxCell id="replgroup1" value="" style="ellipse;whiteSpace=wrap;html=1;dashed=1;shadow=1;" parent="1" vertex="1">
          <mxGeometry x="80" y="414" width="270" height="350" as="geometry" />
        </mxCell>
        <mxCell id="replgroup2" value="" style="ellipse;whiteSpace=wrap;html=1;dashed=1;shadow=1;" parent="1" vertex="1">
          <mxGeometry x="680" y="420" width="260" height="350" as="geometry" />
        </mxCell>
        <mxCell id="client" value="Клиент" style="rounded=1;whiteSpace=wrap;html=1;fillColor=#f5f5f5;strokeColor=#666666;shadow=1;" parent="1" vertex="1">
          <mxGeometry x="370" y="-520" width="120" height="60" as="geometry" />
        </mxCell>
        <mxCell id="zNyTVNr0TKTsL74k70Hm-1" value="" style="edgeStyle=orthogonalEdgeStyle;rounded=0;orthogonalLoop=1;jettySize=auto;html=1;shadow=1;" edge="1" parent="1" source="gateway" target="consul">
          <mxGeometry relative="1" as="geometry" />
        </mxCell>
        <mxCell id="gateway" value="nginx-gateway" style="rounded=1;whiteSpace=wrap;html=1;fillColor=#60a917;strokeColor=#2D7600;fontColor=#ffffff;shadow=1;" parent="1" vertex="1">
          <mxGeometry x="370" y="-360" width="120" height="60" as="geometry" />
        </mxCell>
        <mxCell id="consul" value="consul" style="rounded=1;whiteSpace=wrap;html=1;fillColor=#1ba1e2;strokeColor=#006EAF;fontColor=#ffffff;shadow=1;" parent="1" vertex="1">
          <mxGeometry x="370" y="-190" width="120" height="60" as="geometry" />
        </mxCell>
        <mxCell id="app1" value="pymongo-api-1" style="rounded=1;whiteSpace=wrap;html=1;fillColor=#f8cecc;strokeColor=#b85450;shadow=1;" parent="1" vertex="1">
          <mxGeometry x="180" y="-60" width="120" height="60" as="geometry" />
        </mxCell>
        <mxCell id="app2" value="pymongo-api-2" style="rounded=1;whiteSpace=wrap;html=1;fillColor=#f8cecc;strokeColor=#b85450;shadow=1;" parent="1" vertex="1">
          <mxGeometry x="370" y="-60" width="120" height="60" as="geometry" />
        </mxCell>
        <mxCell id="app3" value="pymongo-api-3" style="rounded=1;whiteSpace=wrap;html=1;fillColor=#f8cecc;strokeColor=#b85450;shadow=1;" parent="1" vertex="1">
          <mxGeometry x="570" y="-60" width="120" height="60" as="geometry" />
        </mxCell>
        <mxCell id="redis" value="redis" style="rounded=1;whiteSpace=wrap;html=1;fillColor=#d5e8d4;strokeColor=#82b366;shadow=1;" parent="1" vertex="1">
          <mxGeometry x="170" y="150" width="120" height="60" as="geometry" />
        </mxCell>
        <mxCell id="configsvr" value="configsvr" style="rounded=1;whiteSpace=wrap;html=1;fillColor=#d5e8d4;strokeColor=#82b366;shadow=1;" parent="1" vertex="1">
          <mxGeometry x="370" y="150" width="120" height="60" as="geometry" />
        </mxCell>
        <mxCell id="mongos" value="mongos" style="rounded=1;whiteSpace=wrap;html=1;fillColor=#d80073;strokeColor=#A50040;fontColor=#ffffff;shadow=1;" parent="1" vertex="1">
          <mxGeometry x="450" y="450" width="120" height="60" as="geometry" />
        </mxCell>
        <mxCell id="shard1-primary" value="shard1 (Primary)" style="rounded=1;whiteSpace=wrap;html=1;fillColor=#f8cecc;strokeColor=#b85450;shadow=1;" parent="1" vertex="1">
          <mxGeometry x="150" y="450" width="120" height="60" as="geometry" />
        </mxCell>
        <mxCell id="shard1-secondary1" value="shard1-secondary1" style="rounded=1;whiteSpace=wrap;html=1;fillColor=#f8cecc;strokeColor=#b85450;shadow=1;" parent="1" vertex="1">
          <mxGeometry x="150" y="530" width="120" height="60" as="geometry" />
        </mxCell>
        <mxCell id="shard1-secondary2" value="shard1-secondary2" style="rounded=1;whiteSpace=wrap;html=1;fillColor=#f8cecc;strokeColor=#b85450;shadow=1;" parent="1" vertex="1">
          <mxGeometry x="150" y="610" width="120" height="60" as="geometry" />
        </mxCell>
        <mxCell id="shard2-primary" value="shard2 (Primary)" style="rounded=1;whiteSpace=wrap;html=1;fillColor=#d5e8d4;strokeColor=#82b366;shadow=1;" parent="1" vertex="1">
          <mxGeometry x="750" y="450" width="120" height="60" as="geometry" />
        </mxCell>
        <mxCell id="shard2-secondary1" value="shard2-secondary1" style="rounded=1;whiteSpace=wrap;html=1;fillColor=#d5e8d4;strokeColor=#82b366;shadow=1;" parent="1" vertex="1">
          <mxGeometry x="750" y="530" width="120" height="60" as="geometry" />
        </mxCell>
        <mxCell id="shard2-secondary2" value="shard2-secondary2" style="rounded=1;whiteSpace=wrap;html=1;fillColor=#d5e8d4;strokeColor=#82b366;shadow=1;" parent="1" vertex="1">
          <mxGeometry x="750" y="610" width="120" height="60" as="geometry" />
        </mxCell>
        <mxCell id="conn1" value="" style="endArrow=classic;html=1;rounded=0;shadow=1;" parent="1" source="client" target="gateway" edge="1">
          <mxGeometry width="50" height="50" relative="1" as="geometry">
            <mxPoint x="500" y="-120" as="sourcePoint" />
            <mxPoint x="500" y="-80" as="targetPoint" />
          </mxGeometry>
        </mxCell>
        <mxCell id="conn5" value="" style="endArrow=classic;html=1;rounded=0;strokeColor=#9673a6;jumpStyle=arc;shadow=1;" parent="1" source="consul" target="app1" edge="1">
          <mxGeometry width="50" height="50" relative="1" as="geometry">
            <mxPoint x="720" y="-20" as="sourcePoint" />
            <mxPoint x="220" y="80" as="targetPoint" />
          </mxGeometry>
        </mxCell>
        <mxCell id="conn6" value="" style="endArrow=classic;html=1;rounded=0;strokeColor=#9673a6;jumpStyle=arc;shadow=1;" parent="1" source="consul" target="app2" edge="1">
          <mxGeometry width="50" height="50" relative="1" as="geometry">
            <mxPoint x="720" y="-20" as="sourcePoint" />
            <mxPoint x="500" y="80" as="targetPoint" />
          </mxGeometry>
        </mxCell>
        <mxCell id="conn7" value="" style="endArrow=classic;html=1;rounded=0;strokeColor=#9673a6;jumpStyle=arc;shadow=1;" parent="1" source="consul" target="app3" edge="1">
          <mxGeometry width="50" height="50" relative="1" as="geometry">
            <mxPoint x="720" y="-20" as="sourcePoint" />
            <mxPoint x="780" y="80" as="targetPoint" />
          </mxGeometry>
        </mxCell>
        <mxCell id="conn8" value="" style="endArrow=classic;html=1;rounded=0;shadow=1;" parent="1" source="app1" target="redis" edge="1">
          <mxGeometry width="50" height="50" relative="1" as="geometry">
            <mxPoint x="220" y="80" as="sourcePoint" />
            <mxPoint x="220" y="120" as="targetPoint" />
          </mxGeometry>
        </mxCell>
        <mxCell id="conn9" value="" style="endArrow=classic;html=1;rounded=0;shadow=1;" parent="1" source="app2" target="configsvr" edge="1">
          <mxGeometry width="50" height="50" relative="1" as="geometry">
            <mxPoint x="500" y="80" as="sourcePoint" />
            <mxPoint x="500" y="120" as="targetPoint" />
          </mxGeometry>
        </mxCell>
        <mxCell id="conn10" value="" style="endArrow=classic;html=1;rounded=0;shadow=1;" parent="1" source="app3" target="mongos" edge="1">
          <mxGeometry width="50" height="50" relative="1" as="geometry">
            <mxPoint x="780" y="80" as="sourcePoint" />
            <mxPoint x="780" y="120" as="targetPoint" />
          </mxGeometry>
        </mxCell>
        <mxCell id="conn11" value="" style="endArrow=classic;html=1;rounded=0;shadow=1;" parent="1" source="mongos" target="configsvr" edge="1">
          <mxGeometry width="50" height="50" relative="1" as="geometry">
            <mxPoint x="720" y="150" as="sourcePoint" />
            <mxPoint x="560" y="150" as="targetPoint" />
          </mxGeometry>
        </mxCell>
        <mxCell id="conn12" value="" style="endArrow=classic;html=1;rounded=0;shadow=1;" parent="1" source="mongos" target="shard1-primary" edge="1">
          <mxGeometry width="50" height="50" relative="1" as="geometry">
            <mxPoint x="760" y="380" as="sourcePoint" />
            <mxPoint x="210" y="480" as="targetPoint" />
          </mxGeometry>
        </mxCell>
        <mxCell id="conn13" value="" style="endArrow=classic;html=1;rounded=0;shadow=1;" parent="1" source="mongos" target="shard2-primary" edge="1">
          <mxGeometry width="50" height="50" relative="1" as="geometry">
            <mxPoint x="760" y="380" as="sourcePoint" />
            <mxPoint x="810" y="480" as="targetPoint" />
          </mxGeometry>
        </mxCell>
        <mxCell id="repl1" value="" style="endArrow=classic;html=1;rounded=0;strokeColor=#b85450;shadow=1;" parent="1" source="shard1-primary" target="shard1-secondary1" edge="1">
          <mxGeometry width="50" height="50" relative="1" as="geometry">
            <mxPoint x="210" y="510" as="sourcePoint" />
            <mxPoint x="210" y="530" as="targetPoint" />
          </mxGeometry>
        </mxCell>
        <mxCell id="repl2" value="" style="endArrow=classic;html=1;rounded=0;strokeColor=#b85450;shadow=1;" parent="1" source="shard1-secondary1" target="shard1-secondary2" edge="1">
          <mxGeometry width="50" height="50" relative="1" as="geometry">
            <mxPoint x="210" y="590" as="sourcePoint" />
            <mxPoint x="210" y="610" as="targetPoint" />
          </mxGeometry>
        </mxCell>
        <mxCell id="repl3" value="" style="endArrow=classic;html=1;rounded=0;strokeColor=#82b366;shadow=1;" parent="1" source="shard2-primary" target="shard2-secondary1" edge="1">
          <mxGeometry width="50" height="50" relative="1" as="geometry">
            <mxPoint x="810" y="510" as="sourcePoint" />
            <mxPoint x="810" y="530" as="targetPoint" />
          </mxGeometry>
        </mxCell>
        <mxCell id="repl4" value="" style="endArrow=classic;html=1;rounded=0;strokeColor=#82b366;shadow=1;" parent="1" source="shard2-secondary1" target="shard2-secondary2" edge="1">
          <mxGeometry width="50" height="50" relative="1" as="geometry">
            <mxPoint x="810" y="590" as="sourcePoint" />
            <mxPoint x="810" y="610" as="targetPoint" />
          </mxGeometry>
        </mxCell>
        <mxCell id="title" value="API Gateway и Service Discovery" style="text;html=1;strokeColor=none;fillColor=none;align=center;verticalAlign=middle;whiteSpace=wrap;rounded=0;fontSize=16;fontStyle=1;shadow=1;" parent="1" vertex="1">
          <mxGeometry x="290" y="-670" width="280" height="30" as="geometry" />
        </mxCell>
        <mxCell id="JAR7a0XrxgkRFTakLpR8-1" value="Replica Set 1" style="text;html=1;align=center;verticalAlign=middle;whiteSpace=wrap;rounded=0;fontSize=20;shadow=1;" parent="1" vertex="1">
          <mxGeometry x="185" y="700" width="60" height="30" as="geometry" />
        </mxCell>
        <mxCell id="JAR7a0XrxgkRFTakLpR8-2" value="Replica Set 1" style="text;html=1;align=center;verticalAlign=middle;whiteSpace=wrap;rounded=0;fontSize=20;shadow=1;" parent="1" vertex="1">
          <mxGeometry x="790" y="700" width="60" height="30" as="geometry" />
        </mxCell>
        <mxCell id="JAR7a0XrxgkRFTakLpR8-3" value="" style="endArrow=classic;html=1;rounded=0;exitX=0.5;exitY=1;exitDx=0;exitDy=0;shadow=1;" parent="1" source="app2" edge="1">
          <mxGeometry width="50" height="50" relative="1" as="geometry">
            <mxPoint x="260" y="50" as="sourcePoint" />
            <mxPoint x="230" y="150" as="targetPoint" />
          </mxGeometry>
        </mxCell>
        <mxCell id="JAR7a0XrxgkRFTakLpR8-4" value="" style="endArrow=classic;html=1;rounded=0;exitX=0.415;exitY=1.031;exitDx=0;exitDy=0;exitPerimeter=0;jumpStyle=arc;entryX=0.506;entryY=-0.033;entryDx=0;entryDy=0;entryPerimeter=0;shadow=1;" parent="1" source="app3" edge="1" target="redis">
          <mxGeometry width="50" height="50" relative="1" as="geometry">
            <mxPoint x="730" y="110" as="sourcePoint" />
            <mxPoint x="210" y="150" as="targetPoint" />
          </mxGeometry>
        </mxCell>
      </root>
    </mxGraphModel>
  </diagram>
</mxfile>
